<?xml version="1.0" encoding="UTF-8"?>
<svg id="b" data-name="Layer 2" xmlns="http://www.w3.org/2000/svg" width="12.599" height="11.949" viewBox="0 0 12.599 11.949">
  <g id="c" data-name="b">
    <g id="d" data-name="c">
      <g>
        <path d="M2.366,9.07c.006-.11.017-.221.034-.331.004-.027.009-.055.013-.081,0-.007.002-.014.003-.02.009-.047.019-.096.031-.145-.041-.06-.063-.096-.064-.098-.002-.004-.005-.008-.007-.012-.458-.755-.7-1.623-.7-2.512,0-.883.244-1.73.675-2.462-.016-.066-.03-.131-.042-.195,0-.007-.003-.014-.004-.021-.01-.056-.019-.114-.027-.179v-.003s-.002-.01-.002-.015c-.007-.055-.012-.11-.016-.17-.06-.82.161-1.624.656-2.397C1.128,1.625,0,3.662,0,5.87c0,1.193.325,2.361.941,3.377.07.118.742,1.209,2.017,2.077-.103-.189-.189-.379-.262-.571-.25-.55-.361-1.114-.33-1.684h0Z" fill="#3679f6" stroke-width="0"/>
        <path d="M9.692.432c.58.8.851,1.642.802,2.507-.001.018-.002.035-.004.057-.001.014-.002.028-.003.043-.002.018-.003.035-.005.055-.001.014-.003.028-.004.041-.002.016-.004.031-.006.047v.005h0v.009l-.006.034c-.002.015-.004.029-.007.044v.006l-.002.008c-.002.011-.004.023-.005.033l-.003.019-.006.031-.002.009-.006.031c-.003.015-.006.031-.01.046v.005l-.003.008-.006.028c-.004.019-.009.038-.013.056v.005l-.006.022c-.006.022-.011.044-.017.066.349.676.544,1.435.544,2.224,0,.795-.195,1.575-.564,2.271.016.042.032.084.046.125.013.039.025.078.036.117l.009.032c.039.133.069.253.09.365.002.008.003.015.004.022.004.021.007.041.01.062v.007c.019.11.031.22.038.328.035.539-.054,1.072-.267,1.593.832-.73,1.276-1.451,1.332-1.546.615-1.016.941-2.184.941-3.377,0-2.204-1.125-4.24-2.908-5.438h0Z" fill="#2ba579" stroke-width="0"/>
        <path d="M9.912,8.96c-.003-.019-.006-.039-.01-.058,0-.003-.001-.006-.002-.009-.019-.107-.047-.213-.078-.319-.013-.042-.024-.085-.038-.127-.017-.05-.036-.101-.056-.151-.248-.626-.705-1.232-1.366-1.814-.007.006-.014.011-.021.017-.025.02-.189.143-.253.19-.179.131-.368.261-.562.385-.089.058-.181.115-.273.171-.09.055-.178.111-.264.167.219.172.413.343.58.514.026.027.051.053.076.079.023.025.045.05.067.074.328.372.528.738.591,1.09.039.215.027.432-.035.653-.009.032-.019.063-.03.095-.014.039-.029.078-.045.118-.008.02-.017.039-.026.059-.018.039-.038.079-.06.119-.082.152-.186.307-.314.465-.004.005-.007.01-.01.014-.009.012-.018.024-.027.037-.007.01-.014.02-.02.031-.007.011-.013.022-.019.033-.007.012-.013.025-.019.037-.005.01-.009.02-.014.03-.006.014-.012.027-.017.041-.004.01-.007.02-.01.03-.004.014-.009.028-.012.042-.003.011-.005.022-.008.034-.003.013-.005.026-.007.039s-.004.026-.005.039c0,.011-.002.023-.003.034,0,.015,0,.029,0,.044v.032c0,.015.002.03.003.044,0,.011.002.022.004.033.002.014.004.027.007.041.002.012.005.025.008.037s.006.023.01.035c.004.014.009.029.014.043.002.005.003.011.006.016.002.006.005.011.007.016.004.01.008.019.013.028.006.013.012.025.019.038.004.008.008.016.013.024.011.02.024.039.037.058.002.003.004.006.007.009.012.017.025.033.038.049.004.005.009.01.013.014.013.014.027.029.041.042.004.003.007.007.011.011.017.016.036.031.055.046,0,.001.002.002.004.003.017.013.035.025.052.036.007.004.014.008.02.012.011.007.022.013.033.019h0s.008.004.012.006c.005.003.011.005.016.008h0c.009.004.018.009.027.013.009.004.019.008.028.012.002,0,.003.001.005.002h0c.008.003.017.006.025.009.006.002.011.004.017.006.006.002.012.004.018.006h0c.009.003.018.005.026.008h0c.006.002.012.003.018.005.005.001.01.003.015.004.011.002.022.004.033.006.009.002.019.004.028.005.016.002.033.004.049.006q.011.001,0,0c-.016-.002.008,0,.012.001.021.002.043.003.065.003h.02c.013,0,.026,0,.04-.002.007,0,.015-.001.022-.002.019-.002.038-.004.057-.008.006,0,.011-.002.017-.003.019-.004.038-.008.057-.013.002,0,.004,0,.006-.002.022-.006.044-.013.066-.021.001,0,.003,0,.004-.001.004-.002.008-.003.012-.005.002,0,.005-.002.007-.003.052-.021.101-.048.148-.079.067-.044.128-.098.181-.162.634-.783.927-1.594.873-2.415-.006-.092-.016-.184-.031-.276l.003.003Z" fill="#3679f6" stroke-width="0"/>
        <path d="M4.573,5.482c.309-.241.654-.48,1.024-.709.074-.046.15-.094.227-.145.013-.008.024-.017.037-.025-.763-.606-1.213-1.213-1.313-1.783-.087-.491.08-.991.511-1.53.016-.02.031-.041.044-.062.005-.008.009-.015.014-.023.008-.014.016-.027.024-.041.005-.009.01-.019.014-.029.006-.013.012-.025.017-.038.004-.01.008-.021.012-.031.005-.012.009-.025.012-.038.003-.011.007-.021.009-.032.004-.013.006-.027.009-.041.002-.01.004-.02.006-.03.004-.023.007-.046.008-.068v-.017c0-.019.002-.038,0-.056,0-.008,0-.017,0-.025,0-.016-.002-.031-.003-.047,0-.009-.002-.018-.004-.027-.002-.015-.005-.03-.008-.045-.002-.009-.004-.018-.006-.027-.004-.015-.008-.029-.012-.043-.003-.009-.005-.018-.009-.027-.005-.014-.01-.028-.016-.042-.004-.009-.007-.018-.011-.027-.006-.014-.013-.027-.02-.041-.004-.008-.008-.017-.013-.025-.011-.02-.024-.04-.037-.059-.007-.01-.014-.019-.022-.029s-.016-.021-.024-.031c-.007-.009-.015-.017-.023-.025-.01-.011-.02-.021-.03-.032-.007-.007-.014-.013-.021-.02-.013-.011-.025-.022-.039-.033-.007-.005-.013-.011-.02-.016-.015-.011-.03-.022-.045-.031-.006-.004-.012-.008-.019-.012-.018-.011-.037-.021-.056-.031-.008-.004-.017-.008-.025-.012-.017-.008-.033-.015-.05-.022-.011-.004-.023-.008-.034-.012-.012-.004-.023-.008-.035-.011-.012-.003-.024-.006-.036-.009-.012-.003-.023-.005-.035-.008-.012-.002-.024-.004-.036-.006-.013-.002-.026-.003-.039-.005-.011-.001-.022-.002-.032-.003-.015,0-.031-.001-.046-.001h-.025c-.005,0-.01,0-.015.001-.044.002-.088.007-.131.016-.008.002-.015.004-.023.006-.016.004-.032.008-.048.013-.01.003-.021.007-.031.01-.013.004-.025.009-.037.014-.012.005-.023.01-.035.015-.047.022-.092.049-.135.079-.059.042-.114.092-.161.151-.641.803-.933,1.635-.871,2.477.004.048.008.096.014.144v.006s0,.007,0,.01c.006.05.014.101.023.151,0,.004.002.007.002.011.019.106.044.212.075.317.213.737.704,1.448,1.465,2.127.028-.022.054-.044.083-.066Z" fill="#3679f6" stroke-width="0"/>
        <path d="M9.745,3.513c.006-.022.012-.045.018-.068.002-.007.004-.015.005-.022.004-.016.008-.032.011-.048.002-.01.004-.019.006-.029.003-.014.006-.029.009-.043.002-.011.004-.022.006-.033.002-.009.003-.019.005-.028,0-.005.002-.009.002-.014.002-.012.004-.023.006-.035.002-.014.004-.028.006-.042.002-.012.003-.024.005-.036.002-.014.004-.028.005-.043.001-.012.003-.025.004-.037.001-.015.003-.029.004-.044.001-.013.002-.026.003-.038.001-.015.002-.03.003-.045.037-.651-.139-1.479-.871-2.375-.053-.065-.116-.119-.184-.163-.059-.038-.123-.07-.189-.092-.01-.003-.021-.007-.031-.01-.014-.004-.028-.008-.043-.011-.009-.002-.018-.004-.027-.006-.017-.003-.035-.006-.052-.008-.006,0-.013-.002-.019-.003-.024-.003-.048-.004-.073-.005h-.02c-.017,0-.033,0-.05.001-.01,0-.019.002-.028.003-.014.001-.028.003-.042.005-.011.002-.022.003-.033.006-.012.002-.025.005-.037.008s-.023.005-.034.009c-.012.003-.025.008-.037.012-.011.003-.021.007-.031.01-.021.008-.042.017-.063.026-.008.004-.015.008-.023.012-.015.008-.03.015-.044.024-.007.004-.014.009-.022.013-.015.009-.03.019-.044.03-.006.004-.012.009-.018.013-.016.013-.032.026-.047.039-.004.003-.007.006-.011.009-.018.016-.034.034-.05.051-.007.008-.013.016-.02.024-.009.011-.017.021-.025.032-.007.01-.014.019-.02.029-.007.01-.014.02-.02.031-.006.01-.012.019-.017.029-.006.012-.012.023-.018.035-.004.009-.009.018-.013.027-.006.015-.012.03-.018.045-.002.006-.005.013-.007.019-.007.022-.014.045-.019.067,0,.004,0,.008-.002.012-.004.019-.007.037-.01.056,0,.008-.002.015-.002.023-.002.015-.003.031-.003.046v.027c0,.014,0,.029,0,.043,0,.009,0,.018.002.028,0,.015.003.03.006.044,0,.008.002.017.004.025.004.022.009.043.015.065.002.009.006.017.008.026.004.014.009.027.014.041.004.01.008.019.012.028.005.013.011.025.017.038.004.009.009.018.014.027.007.014.015.027.024.04.005.007.009.015.014.022.014.02.028.04.044.06.608.744,1.064,1.784-.816,3.238h0c-.071.055-.146.11-.223.165-.013.009-.026.019-.039.028h0c-.061.043-.124.087-.188.13-.063.042-.128.085-.193.127-.078.05-.157.099-.239.149-.357.216-.682.436-.976.66-.059.045-.117.091-.173.136h0c-.014.012-.027.023-.041.034-.071.058-.14.116-.206.174-.764.666-1.255,1.365-1.467,2.089-.03.103-.055.206-.074.31,0,.005-.002.011-.003.016-.004.023-.008.047-.012.07-.014.093-.023.186-.028.278-.035.644.147,1.282.544,1.905.026.042.054.083.082.124.076.111.159.222.249.332.016.019.033.037.05.055.003.003.005.005.008.008.017.016.034.032.052.047.003.003.007.005.01.008.018.015.037.028.056.041h0s.004.002.006.004c.019.013.039.025.06.035,0,0,.003.002.004.002.015.008.03.015.046.022.006.003.012.006.018.008.004.002.007.003.011.005.021.009.042.016.064.023.004.001.007.002.011.003.022.007.045.013.067.017h.005c.022.005.045.008.068.011.003,0,.005,0,.008.001.023.003.046.004.068.005h.022c.015,0,.031,0,.046-.001h.019c.024-.002.048-.004.072-.008.005,0,.009-.002.014-.003.019-.003.039-.007.058-.012.008-.002.016-.005.024-.007.016-.004.031-.009.046-.014.009-.003.017-.006.026-.01.015-.006.029-.012.044-.018.008-.004.017-.008.025-.012.015-.008.03-.016.045-.024.007-.004.014-.008.021-.012.022-.013.043-.027.063-.043.353-.266.414-.756.138-1.095-.129-.158-.234-.312-.316-.464-.191-.355-.256-.696-.195-1.032.101-.559.554-1.154,1.321-1.749.071-.055.145-.111.222-.166.013-.009.026-.019.039-.029.061-.044.124-.087.189-.131.137-.092.281-.184.432-.276.089-.054.176-.108.262-.162.188-.12.367-.242.536-.364.061-.044.219-.163.239-.178.039-.03.076-.06.114-.091.014-.011.028-.023.042-.034.071-.058.14-.116.207-.174.762-.663,1.256-1.362,1.468-2.082.005-.018.011-.036.016-.054l-.005.003Z" fill="#2ba579" stroke-width="0"/>
      </g>
    </g>
  </g>
</svg>