<?xml version="1.0" encoding="UTF-8"?>
<svg id="b" data-name="Layer 2" xmlns="http://www.w3.org/2000/svg" width="568.408" height="540.107" viewBox="0 0 568.408 540.107">
  <g id="c" data-name="Layer 1">
    <g>
      <path d="M237.169,182.076c-16.022-17.842-25.605-35.281-28.479-51.828-.469-2.741-.755-5.401-.876-8.126v-.021l-.005-.024c-.044-.767-.064-1.611-.064-2.571,0-.234.004-.464.008-.69.004-.255.008-.505.008-.751.371-17.395,7.888-35.226,22.981-54.505,5.398-6.879,8.369-15.494,8.369-24.249,0-.675-.021-1.361-.057-2.043v-.012l-.004-.008c-.036-.622-.093-1.251-.149-1.845l-.004-.032-.004-.032-.004-.053c-.763-7.609-3.734-14.799-8.599-20.794-7.496-9.211-18.605-14.492-30.485-14.492-6.024,0-12.07,1.422-17.488,4.11C90.008,49.968,53.721,102.902,47.323,113.16,16.365,159.761,0,214.072,0,270.232c0,81.482,35.188,159.34,96.555,213.619.222.206.436.383.626.545l.214.181.02.016.025.021c3.96,3.278,39.439,32.104,84.934,51.428-.246-.121-.497-.246-.739-.379-.117-.056-.23-.117-.343-.178-.355-.189-.711-.387-1.062-.589-.238-.137-.472-.278-.706-.42-.113-.064-.226-.133-.339-.202-.691-.423-1.365-.872-2.027-1.34l-.004-.004c-.323-.226-.646-.46-.96-.702l-.057-.041c-.299-.226-.589-.452-.88-.69-.339-.266-.67-.541-.997-.823-.274-.239-.549-.481-.82-.727-.1-.089-.202-.182-.299-.275-.185-.169-.367-.343-.549-.52-.092-.085-.181-.174-.27-.263-.182-.177-.363-.359-.541-.545-.367-.371-.722-.747-1.074-1.134-.375-.416-.746-.84-1.11-1.276-.242-.29-.48-.585-.714-.884-.509-.65-1.014-1.3-1.514-1.949-1.607-2.092-3.161-4.191-4.671-6.29-3.629-1.772-7.153-3.75-10.73-5.627-2.01-1.118-3.984-2.293-5.974-3.439-1.99-1.151-3.976-2.306-5.902-3.557l7.4-11.917c-.336-.641-.666-1.283-.993-1.921-.235-.46-.465-.92-.691-1.377-.125-.246-.246-.492-.363-.734-.605-1.223-1.191-2.447-1.76-3.67-.246-.533-.489-1.061-.731-1.59-.093-.206-.181-.412-.274-.614-.251-.553-.493-1.106-.731-1.659-.242-.553-.48-1.102-.714-1.655-.311-.739-.618-1.477-.916-2.216-.751-1.845-1.462-3.69-2.136-5.539-.137-.371-.271-.738-.4-1.11-.521-1.453-1.013-2.906-1.485-4.364-.134-.403-.263-.803-.388-1.203-.113-.367-.226-.734-.339-1.102-.125-.395-.242-.787-.355-1.174-.105-.352-.21-.703-.311-1.054-.109-.371-.214-.743-.319-1.114-.198-.699-.388-1.393-.573-2.091-.113-.42-.222-.836-.331-1.256l-22.013,27.107c-2.115-1.655-4.15-3.402-6.172-5.167-2.014-1.768-4.094-3.475-6.027-5.332l30.857-33.78c-.27-2.039-.496-4.085-.682-6.128l-34.313,36.053c-1.986-1.801-3.83-3.755-5.736-5.64-1.905-1.893-3.786-3.802-5.587-5.793l15.829-14.807c.415-3.988.855-7.883,1.473-11.799,3.916-.061,7.872-.295,11.735-.557l15.812-14.791c.101.113.206.222.307.335.064-1.998.169-4,.319-6.003.056-.734.117-1.473.181-2.212.069-.735.141-1.469.218-2.204-16.418-18.763-29.234-40.214-37.95-63.232-8.711-23.022-13.321-47.61-13.321-72.646,0-40.82,11.929-80.248,34.502-114.028l.004-.008.009-.012c.129-.194.226-.335.306-.456.23-.343.392-.581.662-1.054,1.696-2.668,6.306-9.26,15.76-18.888v.041l.21-.21c.315,2.68.706,5.377,1.171,8.073,7.706,44.361,36.307,86.719,85.212,126.364.428-.343.856-.69,1.284-1.033.428-.348.86-.691,1.292-1.034l.003-.004c13.298-10.596,28.044-21.003,44.244-31.196,6.31-3.972,12.365-7.977,18.137-11.993l.004-.005c.469-.326.929-.654,1.397-.981.469-.326.937-.657,1.401-.984-19.106-13.548-34.874-27.2-47.041-40.748M170.634,30.515l.473-.634,1.877-2.543,3.597-4.824,1.122-1.502,21.399,16.785,24.968,19.582-3.48,4.691-1.748,2.338-1.57,2.389-9.874-6.656-20.285-13.681-11.949-8.058-6.754-4.553,2.224-3.334ZM181.437,51.57l10.875,6.71,17.863,11.016,3.879,2.398c-1.852,3.23-3.839,6.422-5.357,9.692l-17.128-8.541-20.046-10.004-15.562-7.762c1.715-3.593,3.637-6.984,5.599-10.339.775-1.332,1.558-2.66,2.341-3.988l17.536,10.818ZM159.663,24.593c1.223-.634,2.458-1.244,3.698-1.841-2.722,3.754-5.281,7.525-7.683,11.311l-3.128-5.688,7.113-3.782ZM141.752,98.381c.318-2.03.682-4.049,1.118-6.047l12.598,2.588,45.128,9.268c-.739,3.266-1.078,6.532-1.409,9.789l-58.776-4.262c.335-3.795.755-7.59,1.341-11.336ZM12.498,230.776l60.799,8.659c-.259,2.071-.63,4.125-.812,6.205l-61.025-6.879c.247-2.672.695-5.325,1.038-7.985ZM10.975,243.621l61.137,5.801c-.226,2.079-.415,4.158-.504,6.245l-61.278-4.025c.125-2.676.363-5.349.645-8.021ZM10.043,256.519l61.339,2.946c-.169,2.083-.133,4.178-.194,6.27l-61.399-1.179c.073-2.681.052-5.361.254-8.037ZM11.916,304.896l60.927-11.241c1.07,9.027,2.903,21.454,5.151,30.242l-59.445,15.424c-2.906-11.327-5.232-22.82-6.633-34.425ZM110.535,393.806l-50.069,35.56c-3.035-4.424-6.12-8.824-8.909-13.414l52.059-32.581c2.151,3.576,4.574,6.984,6.919,10.435ZM91.707,361.641l2.059,4.311,2.228,4.227c1.429,2.846,3.084,5.574,4.659,8.344l-52.903,31.188c-2.043-3.556-4.141-7.085-5.999-10.742l-2.862-5.446-2.664-5.55,36.537-17.338c.871-1.409,1.747-2.806,2.632-4.182,2.309-3.573,4.779-7.101,7.221-10.5.88,1.986,1.692,4.004,2.62,5.966l1.086,2.277,5.385-2.555ZM81.89,337.19l2.034,5.914c.715,1.954,1.506,3.887,2.245,5.833l-57.077,22.667c-.961-2.507-1.966-5.002-2.886-7.525l-2.628-7.621,58.312-19.268ZM76.864,220.389l-59.761-14.145c1.328-5.207,2.58-10.435,4.207-15.561l58.824,17.636c-1.28,3.972-2.22,8.038-3.27,12.07ZM84.292,195.769l-2.055,5.906-58.215-19.563c.884-2.535,1.732-5.086,2.656-7.609l2.915-7.512,56.963,22.949-2.264,5.829ZM97.153,167.491l-53.903-29.424c5.3-9.632,11.142-18.961,17.487-27.931l16.417,11.703c4.695-.44,9.293-.799,13.863-1.017,1.001,4.505,2.135,8.945,3.31,13.257l16.418,11.702c-4.929,6.98-9.467,14.23-13.592,21.71ZM129.116,116.946l-40.674-39.855c1.897-1.893,3.77-3.814,5.695-5.68l5.886-5.49,30.498,33.566c-.831,5.805-1.3,11.626-1.405,17.459ZM132.729,87.607l-24.309-29.024c4.162-3.383,8.303-6.802,12.651-9.947l16.519,22.226c-1.959,5.563-3.581,11.146-4.861,16.745ZM140.132,121.968l58.922-1.227c.016,3.25.391,6.499.827,9.753l-58.23,9.059c-.832-5.809-1.446-11.675-1.519-17.585ZM173.485,211.294c-6.463-8.711-12.454-18.06-17.584-28.193l17.285-8.691c1.736-4.287,3.395-8.308,5.462-12.276,4.137,1.324,8.517,2.305,12.615,3.181l17.285-8.691c3.347,6.592,7.472,13.091,12.171,19.433l-47.234,35.237ZM259.351,215.323l-37.336,45.592c-3.815-3.189-7.65-6.338-11.367-9.725l39.201-44.001c3.047,2.789,6.297,5.446,9.502,8.134ZM204.435,245.522l-5.491-5.227-5.36-5.462,42.443-40.881,4.258,4.344,4.461,4.239-40.311,42.987Z" fill="#2c63c9" stroke-width="0"/>
      <path d="M434.843,402.469v-.004c-.061-.456-.125-.917-.19-1.377l-.028-.173c-.19-1.316-.4-2.632-.63-3.948-.105-.598-.21-1.199-.323-1.797-.335-1.792-.706-3.584-1.11-5.372v-.005c-.137-.597-.274-1.191-.42-1.784-.139-.59-.287-1.175-.434-1.761l-.013-.052c-.147-.588-.302-1.171-.457-1.755-.319-1.187-.65-2.374-.997-3.561v-.004c-.393-1.335-.806-2.669-1.238-4l-.006-.019c-.43-1.322-.879-2.642-1.347-3.961l-.022-.06c-.04-.112-.084-.224-.124-.336-.539-1.504-1.108-3.006-1.698-4.506-.403-1.025-.807-2.049-1.233-3.071-.238-.57-.48-1.135-.722-1.704-.505-1.171-1.022-2.337-1.554-3.504-.538-1.166-1.086-2.333-1.651-3.496-.098-.197-.194-.395-.291-.593-.473-.965-.957-1.93-1.453-2.894-.295-.578-.598-1.159-.905-1.736v-.004c-.303-.578-.613-1.155-.928-1.736-.315-.577-.63-1.155-.953-1.732v-.004c-.323-.577-.646-1.154-.977-1.728-.327-.577-.662-1.154-.997-1.731-.335-.578-.678-1.151-1.021-1.728-.343-.573-.695-1.151-1.046-1.724v-.004c-.847-1.376-1.715-2.753-2.604-4.126-.294-.456-.593-.916-.896-1.372-.601-.916-1.214-1.829-1.837-2.741-.621-.912-1.251-1.825-1.897-2.733-.318-.456-.642-.912-.973-1.368-.322-.456-.653-.909-.985-1.365-.331-.452-.662-.908-1.001-1.36-.67-.905-1.352-1.813-2.042-2.717-.69-.908-1.393-1.813-2.104-2.713-.714-.904-1.433-1.804-2.163-2.704-.549-.679-1.102-1.353-1.663-2.027-.557-.674-1.123-1.348-1.692-2.022-1.522-1.793-3.08-3.585-4.678-5.369-10.887-12.163-23.599-24.116-38.108-35.839v.004c-1.554,1.231-3.132,2.463-4.731,3.694,2.697,2.151,5.373,4.339,8.017,6.596l-37.998,45.038c-6.754-5.764-13.951-11.226-21.294-16.554-2.176,1.461-4.319,2.922-6.419,4.387,44.599,31.818,70.697,64.028,75.9,93.993,3.25,18.683-1.502,37.676-14.484,57.751l.012-.008c1.922-1.147,3.968-2.148,6.132-2.976,1.901-.726,3.774-1.481,5.627-2.26l1.877-3.726c1.531-2.761,2.491-5.591,3.767-8.368l10.835,4.218,1.126-.605c.23-.126.46-.247.69-.372.662-.367,1.32-.739,1.974-1.106.271-.153.545-.307.815-.46.618-.351,1.224-.707,1.833-1.062.303-.177.61-.351.913-.533.573-.339,1.138-.682,1.707-1.025.331-.198.662-.396.989-.597.537-.328,1.066-.659,1.595-.989.351-.223.71-.441,1.057-.662.505-.315.997-.638,1.494-.957.371-.242.747-.477,1.114-.719.472-.307.941-.621,1.409-.932.384-.255.767-.509,1.146-.763.449-.303.892-.61,1.337-.912.391-.271.787-.537,1.175-.808.423-.291.839-.589,1.255-.884.403-.283.811-.565,1.211-.852.395-.282.787-.569,1.179-.855.411-.299.827-.598,1.239-.897.375-.278.742-.553,1.114-.831.42-.311.84-.622,1.252-.937.355-.266.706-.537,1.057-.807.424-.323.848-.646,1.268-.973.335-.258.666-.521.997-.779.428-.335.856-.67,1.275-1.005l.137-.113c.275-.218.541-.436.812-.65.428-.347.856-.691,1.28-1.034.299-.246.593-.488.888-.734.432-.356.864-.711,1.291-1.07.279-.234.558-.468.836-.706.352-.297.705-.596,1.056-.895-5.739.568-41.555,3.958-44.088,4.024.081-.816.242-4.627.27-5.443l.085-2.442.117-2.442c.009-.812-.06.377-.08-.438l54.936-3.494c.259-.25.521-.501.775-.751.174-.169.343-.335.513-.505.432-.423.86-.843,1.28-1.263.157-.157.315-.315.472-.472.428-.432.856-.86,1.276-1.288.141-.145.278-.287.419-.432.428-.436.852-.872,1.272-1.304.133-.137.262-.274.392-.412.424-.44.839-.876,1.255-1.311.117-.126.234-.251.356-.376.342-.367.686-.731,1.025-1.094v-.004c-.174-1.833-.384-3.665-.626-5.498M329.523,340.851l-4.465-4.238,40.134-43.154,5.494,5.224c1.824,1.752,3.589,3.617,5.381,5.421l-42.257,41.075c-1.433-1.437-2.805-2.911-4.287-4.328ZM351.12,365.508c-.848-1.191-1.797-2.349-2.685-3.528-1.74-2.378-3.709-4.671-5.647-6.976l29.509-25.181c.416-1.591.827-3.189,1.219-4.804.961-4.097,1.849-8.271,2.664-12.518l5.159,5.672,1.926,2.292,4.351-3.713c2.564,3.039,5.135,6.071,7.553,9.321,1.215,1.61,2.467,3.177,3.65,4.828l3.5,5.029-48.712,33.167-2.487-3.589ZM361.89,382.971c-1.72-3.201-3.419-6.426-5.478-9.579l49.919-31.318c2.926,4.53,5.559,9.382,8.126,14.266l-52.567,26.631ZM371.381,415.245c-.198-1.622-.376-3.249-.533-4.876-.259-1.627-.61-3.25-.881-4.881l20.358-4.25c2.414-2.786,4.529-5.72,6.749-8.865,3.355,1.594,6.912,3.326,10.246,5.32l20.337-4.246c.529,2.874,1.099,5.74,1.535,8.638l.956,8.772-58.767,4.388Z" fill="#2c63c9" stroke-width="0"/>
      <polyline points="558.09 230.724 558.108 230.854 558.179 231.372 558.208 231.582 558.191 231.341 558.09 230.724" fill="#2da577" stroke-width="0"/>
      <path d="M410.356,337.852c-.291-.456-.586-.916-.885-1.373.404.623.801,1.247,1.196,1.871-.105-.166-.206-.332-.311-.498" fill="#2da577" stroke-width="0"/>
      <path d="M425.268,366.614c-.214-.533-.432-1.066-.65-1.594l-.045-.097c.261.624.516,1.249.767,1.874l-.072-.183" fill="#2da577" stroke-width="0"/>
      <path d="M429.732,379.181l-.052-.174c-.174-.561-.347-1.118-.529-1.679-.048-.15-.099-.298-.147-.448.432,1.33.844,2.662,1.237,3.996l-.048-.165c-.15-.509-.303-1.018-.461-1.53" fill="#2da577" stroke-width="0"/>
      <path d="M428.392,375.039c.204.602.405,1.204.601,1.807-.14-.431-.279-.861-.424-1.29-.057-.173-.118-.344-.177-.517" fill="#2da577" stroke-width="0"/>
      <path d="M568.376,266.029c-.004-.278-.008-.557-.012-.835-.024-1.361-.057-2.725-.097-4.077l-.004-.097-.101-3.121h-.02c-4.881-113.216-77.603-214.345-184.195-254.548-2.761-1.142-5.66-1.966-8.651-2.454-.363-.061-.727-.113-1.09-.166l-.242-.028c-.444-.061-.888-.109-1.336-.149-.109-.013-.218-.025-.327-.033-.464-.04-.933-.072-1.397-.092-.186-.013-.371-.021-.557-.025-.4-.016-.803-.024-1.207-.028l-.238-.004c-.484,0-.969.012-1.453.028-.198.008-.4.016-.602.029-.21.011-.42.023-.634.04-.379.024-.759.056-1.138.096-7.456.707-14.46,3.493-20.446,8.187-1.405,1.102-2.709,2.289-3.92,3.532l-.222.231c-.343.359-.678.726-1.005,1.093-.114.126-.222.247-.331.372-.146.169-.291.343-.436.517-.154.181-.303.367-.453.553-.12.153-.246.302-.363.456-.258.327-.508.662-.759.997v.004c-.306.424-.605.847-.896,1.28l-.052.076c-.263.396-.517.796-.767,1.195-.085.142-.166.279-.251.42-.117.194-.23.392-.343.585-3.56,6.157-5.365,13.091-5.24,20.298.105,6.252,1.664,12.251,4.534,17.668l.052.093c.142.271.291.537.44.807.093.166.19.328.287.493.178.307.359.61.545.909.145.237.295.476.448.71.085.133.17.266.258.399.243.36.489.715.743,1.07.073.101.142.198.214.299.279.379.557.755.848,1.122l.004.008c.848,1.082,1.671,2.156,2.47,3.218,2.39,3.193,4.55,6.301,6.491,9.345,3.323,5.215,5.995,10.245,8.078,15.174,4.654,11.025,6.487,21.69,5.607,32.609-1.021,12.627-5.857,25.678-14.371,38.782-.302.468-.609.936-.924,1.405-.941,1.404-1.926,2.813-2.955,4.226-1.029,1.417-2.103,2.834-3.222,4.259-1.86,2.374-3.846,4.759-5.954,7.153-.84.957-1.703,1.918-2.583,2.878-2.204,2.406-4.526,4.82-6.968,7.242-1.465,1.454-2.971,2.907-4.521,4.368-5.167,4.861-10.807,9.753-16.902,14.662-1.425,1.146-2.878,2.297-4.36,3.447-1.477,1.151-2.983,2.301-4.509,3.452-.767.577-1.538,1.15-2.313,1.727-1.78,1.317-3.593,2.632-5.434,3.948-.46.331-.92.658-1.384.99-.464.327-.932.658-1.401.984-.468.327-.928.655-1.397.981l-.004.005c-5.772,4.016-11.827,8.021-18.137,11.993-16.2,10.193-30.946,20.6-44.244,31.196l-.003.004c-.432.343-.864.686-1.292,1.034-.428.343-.856.69-1.284,1.033-24.451,19.821-43.827,40.324-58.057,61.412-14.225,21.088-23.304,42.766-27.155,64.944-.565,3.237-1.014,6.471-1.353,9.7-.077.735-.149,1.469-.218,2.204-.064.739-.125,1.478-.181,2.212-.15,2.003-.255,4.005-.319,6.003-.109,3.46-.093,6.919.048,10.371.093,2.212.238,4.42.432,6.628.186,2.043.412,4.089.682,6.128.763,5.744,1.882,11.468,3.355,17.172.109.42.218.836.331,1.256.185.698.375,1.392.573,2.091.105.371.21.743.319,1.114.101.351.206.702.311,1.054.113.387.23.779.355,1.174.113.368.226.735.339,1.102.125.4.254.8.388,1.203.472,1.458.964,2.911,1.485,4.364.129.372.263.739.4,1.11.674,1.849,1.385,3.694,2.136,5.539.298.739.605,1.477.916,2.216.234.553.472,1.102.714,1.655.238.553.48,1.106.731,1.659.093.202.181.408.274.614.242.529.485,1.057.731,1.59.569,1.223,1.155,2.447,1.76,3.67.117.242.238.488.363.734.226.457.456.917.691,1.377.327.638.657,1.28.993,1.921,4.315,8.236,9.385,16.418,15.206,24.54,1.51,2.099,3.064,4.198,4.671,6.29.5.649,1.005,1.299,1.514,1.949.234.299.472.594.714.884.364.436.735.86,1.11,1.276.352.387.707.763,1.074,1.134.178.186.359.368.541.545.089.089.178.178.27.263.182.177.364.351.549.52.097.093.199.186.299.275.271.246.546.488.82.727.327.282.658.557.997.823.291.238.581.464.88.69l.057.041c.314.242.637.476.96.702l.004.004c.662.468,1.336.917,2.027,1.34.113.069.226.138.339.202.234.142.468.283.706.42.351.202.707.4,1.062.589.113.061.226.122.343.178.242.133.493.258.739.379.149.073.295.142.444.21.189.093.375.182.565.271l.242.105c.258.117.517.234.779.347.267.113.541.222.811.331l.223.089.262.101c4.44,1.699,9.212,2.603,14.137,2.603,8.42,0,16.401-2.623,23.171-7.585.355-.262.71-.525,1.062-.795,6.991-5.49,11.622-12.889,13.725-20.886.298-1.143.549-2.297.747-3.464.157-.928.282-1.865.371-2.805.061-.626.109-1.252.137-1.882.033-.629.049-1.259.049-1.889,0-.315-.005-.629-.012-.944-.013-.63-.04-1.26-.085-1.89-.246-3.463-.949-6.907-2.123-10.241-.21-.606-.44-1.211-.687-1.809-1.34-3.289-3.157-6.446-5.457-9.377-.578-.739-1.147-1.473-1.704-2.208-1.114-1.469-2.184-2.931-3.21-4.388-.512-.727-1.012-1.453-1.505-2.18-1.409-2.083-2.729-4.15-3.96-6.209-.92-1.542-1.792-3.08-2.612-4.61-.275-.508-.541-1.017-.803-1.525-6.031-11.691-9.071-23.002-9.184-34.099-.008-.485-.008-.965,0-1.449.032-2.681.238-5.349.614-8.009.096-.667.201-1.329.315-1.995,1.174-6.745,3.459-13.644,6.846-20.652,1.853-3.843,4.037-7.722,6.552-11.626,4.182-6.511,9.276-13.103,15.263-19.752,6.148-6.822,13.208-13.672,21.144-20.523.529-.456,1.062-.912,1.599-1.368.242-.206.484-.412.727-.614,1.073-.912,2.168-1.821,3.277-2.729,7.024-5.772,14.666-11.537,22.91-17.282h.003c2.1-1.465,4.243-2.926,6.419-4.387,2.103-1.409,4.239-2.818,6.414-4.227,1.744-1.13,3.512-2.256,5.301-3.383,14.258-8.97,27.522-18.186,39.56-27.47,1.599-1.231,3.177-2.463,4.731-3.694v-.004c.695-.549,1.389-1.102,2.075-1.655,8.369-6.737,16.151-13.564,23.345-20.475,1.199-1.15,2.382-2.305,3.549-3.463,1.166-1.155,2.316-2.313,3.451-3.476,1.13-1.158,2.248-2.321,3.35-3.488,1.652-1.748,3.262-3.5,4.841-5.256,1.049-1.17,2.083-2.345,3.1-3.52.226-.262.452-.524.678-.787.129-.149.258-.303.383-.452.295-.339.586-.682.872-1.025.521-.614,1.034-1.223,1.538-1.837.456-.545.905-1.086,1.345-1.631.294-.355.585-.714.872-1.07.145-.181.286-.359.431-.54.142-.182.283-.36.429-.541l.173-.219c.505-.633,1.001-1.263,1.494-1.897.137-.177.274-.351.407-.529.077-.096.154-.197.23-.294.142-.182.283-.36.42-.541.202-.267.4-.529.598-.791l.06-.077c.138-.182.275-.359.408-.541l.085-.109c.193-.254.391-.509.581-.767.287-.383.569-.763.848-1.146.283-.384.561-.767.84-1.147.282-.383.561-.767.831-1.15.214-.299.428-.598.638-.897.121-.165.238-.327.351-.492.484-.686.965-1.373,1.437-2.063.247-.355.489-.71.735-1.066,1.078-1.586,2.131-3.181,3.153-4.775.197-.311.395-.622.593-.933.279-.436.553-.876.828-1.316.335-.536.666-1.069.989-1.606.855-1.401,1.683-2.802,2.494-4.207.335-.585.666-1.166.994-1.751.326-.582.65-1.163.972-1.748l.081-.15c.158-.291.315-.581.472-.876.158-.29.311-.581.464-.872.202-.371.396-.743.59-1.114.197-.371.387-.743.581-1.118.299-.578.59-1.155.88-1.732.331-.662.658-1.328.981-1.994.238-.493.476-.985.707-1.478.101-.209.201-.423.302-.641.255-.541.505-1.082.751-1.623.202-.444.404-.884.598-1.328.121-.271.242-.541.359-.816.125-.282.25-.565.371-.847.121-.283.243-.566.364-.848.205-.481.407-.961.605-1.441.202-.481.396-.965.59-1.445.169-.412.331-.824.492-1.236.218-.549.436-1.102.646-1.655.214-.565.427-1.13.638-1.699.282-.767.557-1.534.827-2.305.21-.598.416-1.195.618-1.793.201-.593.395-1.187.589-1.78.037-.113.073-.226.109-.343.174-.533.343-1.07.509-1.607l.044-.149c.202-.65.396-1.296.586-1.946.145-.496.29-.997.431-1.493.029-.105.061-.21.089-.315.194-.695.384-1.389.566-2.083v-.004c.213-.808.415-1.619.617-2.43.033-.138.069-.271.101-.408.19-.787.375-1.578.553-2.37.028-.137.061-.27.089-.404.186-.839.367-1.691.541-2.551.173-.86.343-1.723.5-2.591l.024-.13c.639-3.495,1.167-7.145,1.558-10.935,15.349,17.588,27.532,37.461,36.263,59.163,8.51,21.157,13.399,43.242,14.577,65.796l.089,1.99c.029.613.052,1.231.072,1.853.004.133.009.266.017.399l.008.271c.012.488.028.981.04,1.473.004.17.008.335.012.505l.012.678c.005.408.013.816.021,1.223v.17c.004.46.008.924.008,1.384,0,.279.004.553.004.832,0,16.131-1.886,32.105-5.567,47.614-.076.323-.149.654-.226.977-.06.242-.125.484-.182.722-4.945,20.076-12.901,39.347-23.688,57.125l-.012.02-.073.121-.125.206-.04.069-.093.157-.073.114c-.06.1-.141.225-.233.375l-.073.117c-.154.242-.347.545-.577.896l-.118.182c-.08.121-.165.25-.254.387-.222.335-.468.711-.743,1.118-.201.299-.415.622-.646.957-.254.372-.528.763-.815,1.179-.186.266-.376.541-.577.823l-.137.194c-.15.218-.311.444-.477.67l-.004.008c-.319.453-.654.917-1.005,1.401l-.012.016c-.165.226-.335.457-.505.691l-.052.072c-.157.214-.319.432-.481.65l-.048.069-.048.069c-.146.193-.295.391-.445.593l-.036.048-.117.158c-.157.21-.319.424-.476.638l-.145.193c-.154.198-.308.4-.461.606l-.189.246c-.142.186-.287.375-.432.565-.081.105-.158.206-.238.311-.134.174-.275.355-.412.533-.093.121-.186.238-.279.359-.141.182-.282.364-.428.545-.093.121-.185.242-.282.363l-.11.138-.108.137c-.073.097-.145.186-.222.278-.101.13-.198.255-.299.384-.158.194-.319.396-.476.593-.093.121-.186.235-.283.356-.254.319-.517.642-.783.968l-.016.021c-.372.46-.755.928-1.147,1.4l-.052.069c-.38.456-.763.92-1.155,1.389l-.097.113c-.383.46-.775.924-1.17,1.388l-.126.15c-.391.456-.787.916-1.186,1.38l-.166.19c-.391.452-.791.912-1.194,1.373l-.203.23c-.399.452-.803.908-1.214,1.364l-.235.266c-.404.449-.811.901-1.223,1.353-.093.101-.182.202-.274.303-.408.444-.82.892-1.236,1.34-.105.113-.205.226-.314.339l-.21.23c-.174-1.833-.384-3.665-.63-5.498.242,1.833.452,3.665.626,5.498v.004c-.339.363-.683.727-1.025,1.094-.122.125-.239.25-.356.376-.416.435-.831.871-1.255,1.311-.13.138-.259.275-.392.412-.42.432-.844.868-1.272,1.304-.141.145-.278.287-.419.432-.42.428-.848.856-1.276,1.288-.157.157-.315.315-.472.472-.42.42-.848.84-1.28,1.263-.17.17-.339.336-.513.505-.254.25-.516.501-.775.751-.169.165-.343.331-.512.496-.186.178-.368.356-.554.533-.427.408-.86.82-1.296,1.228-.197.189-.395.375-.593.565-.428.399-.86.799-1.295,1.199-.215.197-.428.399-.646.597-.428.392-.86.783-1.296,1.175-.23.21-.456.42-.691.629-.427.384-.863.768-1.299,1.151-.246.218-.489.436-.735.654-.428.375-.864.747-1.296,1.122-.262.23-.525.456-.787.682l-.24.204c-.351.299-.704.598-1.056.895-.278.238-.557.472-.836.706-.427.359-.859.714-1.291,1.07-.295.246-.589.488-.888.734-.424.343-.852.687-1.28,1.034-.271.214-.537.432-.812.65l-.137.113c-.419.335-.847.67-1.275,1.005-.331.258-.662.521-.997.779-.42.327-.844.65-1.268.973-.351.27-.702.541-1.057.807-.412.315-.832.626-1.252.937-.372.278-.739.553-1.114.831-.412.299-.828.598-1.239.897-.392.286-.784.573-1.179.855-.4.287-.808.569-1.211.852-.416.295-.832.593-1.255.884-.388.271-.784.537-1.175.808-.445.302-.888.609-1.337.912-.379.254-.762.508-1.146.763-.468.311-.937.625-1.409.932-.367.242-.743.477-1.114.719-.497.319-.989.642-1.494.957-.347.221-.706.439-1.057.662-.529.33-1.058.661-1.595.989-.327.201-.658.399-.989.597-.569.343-1.134.686-1.707,1.025-.303.182-.61.356-.913.533-.609.355-1.215.711-1.833,1.062-.27.153-.544.307-.815.46-.654.367-1.312.739-1.974,1.106-.23.125-.46.246-.69.372l-1.126.605c-.339.186-.678.371-1.021.553-.174.093-.356.182-.533.275-.779.411-1.563.819-2.35,1.219l-.254.129c-3.976,2.014-8.086,3.92-12.321,5.7-1.853.779-3.726,1.534-5.627,2.26-2.164.828-4.21,1.829-6.132,2.976l-.012.008c-3.568,2.131-6.705,4.783-9.353,7.811-7.408,8.465-10.988,19.901-9.406,31.317.404,2.899,1.138,5.797,2.224,8.643,1.958,5.119,4.913,9.7,8.688,13.527l.202.21.201.198c1.704,1.679,3.573,3.213,5.587,4.578,6.548,4.424,14.17,6.765,22.045,6.765,1.203,0,2.402-.056,3.593-.165,3.56-.327,7.056-1.142,10.435-2.434,21.225-8.118,41.805-19.155,61.166-32.815,15.674-11.057,30.631-23.878,44.452-38.108,23.902-24.604,36.824-45.515,39.19-49.487,26.8-44.239,40.961-95.082,40.961-147.04v-.246c0-1.256-.012-2.519-.032-3.783M406.355,22.32c8.279,4,16.293,8.53,24.112,13.358l-8.639,13.91c-4.339-8.533-9.624-17.273-16.009-26.17l.536-1.098ZM430.314,109.866l-2.532.186-56.079,4.077c-.201-1.623-.387-3.246-.549-4.873-.189-1.626-.605-3.249-.868-4.88l34.798-7.165c4.714-5.03,9.03-10.549,13.111-16.547,1.28,4.319,2.495,8.679,3.399,13.148l6.249-1.288c.08.448.162.892.247,1.34.456,2.41.952,4.812,1.263,7.262l.961,8.74ZM353.635,67.092c-.957-1.558-2.241-3.246-3.476-4.913l-3.298-4.473,24.281-19.077,21.928-17.225.88,1.166.642.856,1.11,1.506,2.216,3.011c1.13,1.534,2.261,3.036,3.387,4.695.343.509.69,1.033,1.034,1.578l-2.701,1.821-16.515,11.149-20.228,13.653-9.26,6.253ZM356.848,71.972l4.025-2.486,17.083-10.552,15.013-9.273,13.875-8.57c2.704,4.707,5.546,9.265,7.912,14.29l-32.553,16.26-20.018,10c-1.486-3.266-3.536-6.439-5.337-9.669ZM141.647,400.697l1.618-8.586,20.249,4.44c.411-.242.823-.484,1.239-.719l3.028-1.59c2.01-1.026,4.008-1.99,5.99-2.894,1.256,1.84,2.531,3.617,3.819,5.332l1.946,2.523c.29.351.589.703.888,1.054l20.245,4.436c-.291,1.631-.602,3.254-.933,4.873-.166,1.627-.351,3.249-.557,4.872l-58.55-5.01,1.018-8.731ZM146.111,432.7l-5.316.513c-.202-1.522-.311-3.052-.388-4.59-.068-1.397-.109-2.797-.157-4.198l-.077-2.862-.041-1.542.025-.723.08-2.179.057-1.506,58.719,2.244-.117,2.434.093,2.439c.065,1.622.04,3.249.299,4.876l-41.838,4.009-2.418.234-2.398.226-6.523.625ZM218.124,474.57l1.719,2.341,3.428,4.691-23.241,17.976-23.243,17.976-.182-.25-4.485-6.104-2.321-3.189-.529-.811-1.667-2.536,4.307-2.858,16.252-10.778,19.958-13.233,8.457-5.611,1.547,2.386ZM207.971,457.208l2.051,4.17.746,1.296,1.357,2.345.275.48-1.377.804-4.715,2.753-11.408,6.657-14.298,8.348-18.953,11.061-3.452-6.048-3.152-6.329-.723-1.474-.836-1.703c-.488-1.082-.936-2.2-1.404-3.298l-2.749-6.637,15.965-6.039,16.341-6.18,6.443-2.434,1.974-.747,1.99-.751,12.252-4.634,1.755,4.182.872,2.099,1.046,2.079ZM208.944,382.228l-52.228-26.933c2.6-4.828,5.248-9.636,8.183-14.137l49.595,31.523c-2.071,3.141-3.794,6.354-5.55,9.547ZM228.199,354.367c-1.921,2.305-3.932,4.573-5.671,6.947l-2.709,3.512-2.491,3.576-48.397-33.331,3.5-4.998,3.665-4.779c2.414-3.238,5.006-6.213,7.557-9.257l29.332,25.242c1.562.214,3.12.444,4.674.695,4.065.674,8.062,1.425,11.986,2.248l-4.211,4.606c-.529.602-1.045,1.211-1.558,1.821l4.323,3.718ZM237.206,344.589l-42.004-41.098c3.533-3.682,7.198-7.121,10.864-10.577l39.895,43.146c-2.971,2.813-5.974,5.611-8.755,8.529ZM256.316,326.973l-37.793-44.998c2.108-1.785,4.231-3.537,6.37-5.256.432-.347.868-.691,1.3-1.034.436-.347.868-.694,1.304-1.037l.004-.004c5.393-4.255,10.867-8.332,16.389-12.296l7.723,10.782,5.865-4.158,5.938-4.02c-.052,4.21-.072,8.376-.036,12.542.057,4.194.158,8.36.299,12.494l2.491,3.479,1.004,1.401,1.001,1.401,8.547,11.933.004.008,1.376,1.917c-7.529,5.406-14.875,10.98-21.786,16.846ZM298.684,295.852c-.525.334-1.046.674-1.571,1.013l-4.937-7.685-12.037-1.864,6.179-7.272-7.887-12.236v-.004l-13.096-20.37c1.805-1.175,12.046-7.333,13.83-8.528l11.771,17.798h.004l.965,1.462.961,1.457,16.292,24.624,1.276,1.93,1.155,1.74c-1.494.997-11.404,6.97-12.905,7.935ZM317.176,283.745l-4.534-6.402-18.488-26.103-1.001-1.408-.998-1.409v-.004l-8.263-11.662v-.004l-.682-.965c.343-.247.69-.493,1.041-.739.468-.331.941-.662,1.413-.997.925-.65,9.534-6.239,10.426-6.913l5.333,7.278,2.62,3.585.747,1.021,1.017,1.385.844,1.158h.003l18.081,24.71,6.06,8.283c-1.954,1.474-11.641,7.765-13.619,9.186ZM348.847,260.596l-37.239-45.459c3.217-2.668,6.438-5.336,9.49-8.11l39.08,43.885c-3.713,3.362-7.52,6.527-11.331,9.684ZM371.84,240.044c-1.8,1.781-3.645,3.476-5.469,5.216l-40.186-42.879c1.477-1.413,3.003-2.801,4.448-4.23l4.263-4.324,42.301,40.792-5.357,5.425ZM397.252,211.169l-47.069-35.184c4.687-6.322,8.801-12.805,12.139-19.373l17.225,8.683c4.097-.868,8.493-1.829,12.586-3.161,2.096,3.977,3.714,7.973,5.438,12.244l17.225,8.683c-5.119,10.1-11.097,19.425-17.544,28.108ZM430.111,130.902c-.326,2.914-.633,5.841-1.045,8.739l-58.061-9.058.573-4.861c.194-1.618.134-3.241.246-4.86l58.752,1.227c-.141,2.939-.153,5.898-.465,8.813ZM558.183,231.248l.008.093.012.089.114.844c.02.145.032.294.047.444l.235,1.768-.113.016c-.021-.596-.062-1.191-.123-1.785l-.041-.307-.114-.828.214,2.929.064-.009c.016.392.024.787.02,1.179l-.085-1.171-13.543,3.701.275.352.205,1.796.432,4.13c.234,2.523.452,8.572.622,11.119-3.775-2.293-7.585-4.485-11.408-6.6-3.847-2.2-7.686-4.174-11.57-5.971l-25.629,3.67-.125-4.596-.061-.541-.028-.27-.008-.069-.129-.799-.053-.396c-1.223-8.554-2.761-16.11-4.8-23.958l59.394-15.626c2.672,10.172,4.791,20.914,6.188,30.796ZM438.339,102.285c-.683-5.547-1.716-11.271-3.157-17.153l23.716-29.21c2.099,1.671,4.154,3.399,6.172,5.163,2.047,1.74,4.062,3.512,6.023,5.345l-32.754,35.855ZM441.726,123.652l-2.314-2.402c.041-4.154-.096-8.445-.447-12.862l36.274-38.115,5.752,5.631,5.587,5.793-15.836,14.815c-.416,3.976-.924,7.928-1.477,11.8-3.968.121-7.864.29-11.735.557l-15.804,14.783ZM464.99,153.427l-2.148-3.266-.081-.129-.004-.004-.004-.012-.016-.024-.016-.02-.012-.017-1.126-1.816c.274.5.577.997.896,1.473l.153.23-.387-.557-.771-1.118-1.543-2.228,50.25-35.306,1.648,2.382.827,1.19.412.594.549.807.024.041,2.636,4,2.895,4.517-52.378,32.073-1.804-2.81ZM478.88,178.225c-2.741-5.769-5.655-11.271-9.002-16.898l52.939-31.128c4.101,6.899,8.033,14.282,11.541,21.682l-36.533,17.35c-3.145,5.05-6.439,9.943-9.87,14.658-1.175-2.766-2.406-5.503-3.698-8.219l-5.377,2.555ZM488.645,202.619c-.694-2.107-1.344-3.996-2.034-5.821l-1.046-2.846-1.183-3.068,57.117-22.569c1.776,4.533,3.932,10.346,5.502,15.166l-58.356,19.138ZM388.722,525.45l-7.516,2.919-9.761-26.308-8.283-22.332-3.319-8.941,3.088-1.199,2.742-1.062,5.756-2.434,5.094,11.585,6.915,15.724,10.536,23.97,2.172,4.941-7.424,3.137ZM403.671,518.862l-1.361-2.854-.004-.008-2.854-5.995-4.069-8.55-8.344-17.523-9.773-20.519c3.464-1.664,6.891-3.408,10.266-5.244.29-.154.577-.307.864-.465l.565,1.022,20.034,36.408,3.258,5.917v.005l5.753,10.451c-4.708,2.587-9.491,5.03-14.335,7.355ZM455.903,486.382l-6.391,4.896-20.228-27.22v-.004l-1.937-2.603c-6.564-2.423-12.97-5.095-19.179-7.989,2.943-1.978,5.841-4.021,8.683-6.136l-3.968-5.341,4.969-3.811,4.856-3.952,10.871,12.979h.004l28.561,34.098-6.241,5.083ZM476.414,468.458c-1.926,1.869-3.876,3.714-5.878,5.499l-35.184-38.721-5.168-5.688-.948-1.042c.351-.311.69-.634,1.037-.948,1.195-1.09,2.374-2.205,3.536-3.331.751-.702,1.51-1.445,2.273-2.204v-.004c.763-.759,1.526-1.538,2.293-2.317l43.638,43.206c-1.809,1.845-3.617,3.685-5.599,5.55ZM509.794,429.717l-16.418-11.698c-2.325.234-4.601.464-6.911.629-2.341.154-4.658.279-6.959.38-.493-2.249-1.001-4.469-1.534-6.665-.545-2.204-1.167-4.416-1.772-6.588l-16.418-11.703c5.05-6.899,9.438-14.25,13.617-21.693l53.902,29.428c-5.348,9.595-11.04,19.025-17.507,27.91ZM543.841,365.359c-.958,2.511-1.797,5.066-2.879,7.524l-56.963-22.953c.856-1.901,1.482-3.895,2.228-5.841.691-1.966,1.51-3.888,2.103-5.886l58.219,19.563c-.787,2.571-1.809,5.058-2.708,7.593ZM551.442,341.433c-.723,2.587-1.353,5.203-2.164,7.766l-58.828-17.636c.638-1.986,1.106-4.021,1.671-6.023.529-2.019,1.146-4.013,1.55-6.06l59.761,14.145c-.541,2.632-1.304,5.212-1.99,7.808ZM558.066,309.094l-60.802-8.651.807-6.205,61.028,6.867-1.033,7.989ZM559.58,296.257l-61.137-5.813.528-6.273,61.279,4.097-.67,7.989ZM560.569,283.23l-61.355-2.696.213-6.492,61.4,1.373-.258,7.815Z" fill="#2da577" stroke-width="0"/>
      <path d="M433.995,396.967c.093.53.18,1.06.266,1.59-.087-.531-.171-1.064-.262-1.594-.084-.481-.169-.957-.258-1.437-.061-.335-.125-.674-.19-1.009-.089-.469-.182-.937-.274-1.401-.093-.448-.182-.892-.279-1.337-.02-.092-.036-.185-.056-.278-.125-.569-.251-1.138-.38-1.703.404,1.788.775,3.58,1.11,5.372.113.598.218,1.199.323,1.797" fill="#2da577" stroke-width="0"/>
      <path d="M422.297,359.715c-.227-.5-.461-.997-.695-1.497-.076-.166-.157-.335-.238-.505-.157-.339-.319-.674-.484-1.013-.134-.279-.267-.557-.404-.832l-.121-.242c.097.198.193.396.291.593.565,1.163,1.113,2.33,1.651,3.496" fill="#2da577" stroke-width="0"/>
      <path d="M424.573,364.923c-.198-.485-.403-.969-.613-1.454l-.105-.25-.065-.149c-.23-.537-.464-1.07-.702-1.607-.259-.581-.525-1.166-.791-1.748.532,1.167,1.049,2.333,1.554,3.504.242.569.484,1.134.722,1.704" fill="#2da577" stroke-width="0"/>
      <path d="M420.355,355.626c-.473-.965-.957-1.93-1.45-2.894l-.128-.247c-.255-.496-.513-.993-.78-1.489.307.577.61,1.158.905,1.736.496.964.98,1.929,1.453,2.894" fill="#2da577" stroke-width="0"/>
      <path d="M431.977,387.323c-.045-.19-.093-.384-.141-.573-.041-.178-.085-.352-.134-.525-.052-.226-.113-.456-.174-.682l-.023-.101c-.114-.436-.227-.872-.344-1.308-.295-1.086-.597-2.168-.92-3.254.347,1.187.678,2.374.997,3.561.155.584.31,1.167.457,1.755l.013.052c.147.586.295,1.171.434,1.761.146.593.283,1.187.42,1.784-.117-.516-.234-1.033-.359-1.546-.073-.311-.15-.617-.226-.924" fill="#2da577" stroke-width="0"/>
      <path d="M434.653,401.088c-.064-.456-.133-.916-.202-1.372-.035-.229-.075-.455-.112-.684.1.628.195,1.255.286,1.883l.028.173" fill="#2da577" stroke-width="0"/>
    </g>
  </g>
</svg>